# xmcd
# 
# Track frame offsets:
#     150
#     14719
#     25880
#     38614
#     46636
#     60701
#     74802
#     90241
#     106126
#     119689
#     130097
# 
# Disc length: 3567
# 
# Revision: 3
# Processed by: cddbd v1.5.2PL0 Copyright (c) Steve Scherf et al.
# Submitted via: fre:ac v1.0.17
# 
DISCID=8f0ded0b
DTITLE=Lama - Island Of Madness
DYEAR=2004
DGENRE=
TTITLE0=F.t.v.
TTITLE1=Same To Me
TTITLE2=Reggae Is What I Want
TTITLE3=Satan's Queue
TTITLE4=Big Tree
TTITLE5=Gently
TTITLE6=Use My Own Two Feets
TTITLE7=The Dance
TTITLE8=Free Time
TTITLE9=All In My Head
TTITLE10=Crazy World
EXTD=
EXTT0=
EXTT1=
EXTT2=
EXTT3=
EXTT4=
EXTT5=
EXTT6=
EXTT7=
EXTT8=
EXTT9=
EXTT10=
PLAYORDER=
